<?xml version="1.0" encoding="UTF-8"?>
<svg xmlns="http://www.w3.org/2000/svg" xmlns:xlink="http://www.w3.org/1999/xlink" width="14px" height="14px" viewBox="0 0 14 14" version="1.1">
<defs>
<filter id="alpha" filterUnits="objectBoundingBox" x="0%" y="0%" width="100%" height="100%">
  <feColorMatrix type="matrix" in="SourceGraphic" values="0 0 0 0 1 0 0 0 0 1 0 0 0 0 1 0 0 0 1 0"/>
</filter>
<mask id="mask0">
  <g filter="url(#alpha)">
<rect x="0" y="0" width="14" height="14" style="fill:rgb(0%,0%,0%);fill-opacity:0.5;stroke:none;"/>
  </g>
</mask>
<clipPath id="clip1">
  <rect x="0" y="0" width="14" height="14"/>
</clipPath>
<g id="surface5" clip-path="url(#clip1)">
<path style=" stroke:none;fill-rule:nonzero;fill:rgb(0%,0%,0%);fill-opacity:1;" d="M 4.171875 4.171875 C 3.78125 4.5625 3.78125 5.195312 4.171875 5.585938 L 5.585938 7 L 4.171875 8.414062 C 3.78125 8.804688 3.78125 9.4375 4.171875 9.828125 C 4.5625 10.21875 5.195312 10.21875 5.585938 9.828125 L 7 8.414062 L 8.414062 9.828125 C 8.804688 10.21875 9.4375 10.21875 9.828125 9.828125 C 10.21875 9.4375 10.21875 8.804688 9.828125 8.414062 L 8.414062 7 L 9.828125 5.585938 C 10.21875 5.195312 10.21875 4.5625 9.828125 4.171875 C 9.4375 3.78125 8.804688 3.78125 8.414062 4.171875 L 7 5.585938 L 5.585938 4.171875 C 5.195312 3.78125 4.5625 3.78125 4.171875 4.171875 Z M 4.171875 4.171875 "/>
</g>
</defs>
<g id="surface1">
<path style=" stroke:none;fill-rule:evenodd;fill:#df4744;fill-opacity:1;" d="M 7 14 C 10.867188 14 14 10.867188 14 7 C 14 3.132812 10.867188 0 7 0 C 3.132812 0 0 3.132812 0 7 C 0 10.867188 3.132812 14 7 14 "/>
<path style=" stroke:none;fill-rule:evenodd;fill:#fd5754;fill-opacity:1;" d="M 7 13.5 C 10.589844 13.5 13.5 10.589844 13.5 7 C 13.5 3.410156 10.589844 0.5 7 0.5 C 3.410156 0.5 0.5 3.410156 0.5 7 C 0.5 10.589844 3.410156 13.5 7 13.5 "/>
<use xlink:href="#surface5" mask="url(#mask0)"/>
</g>
</svg>
