<?xml version="1.0" encoding="UTF-8"?>
<svg xmlns="http://www.w3.org/2000/svg" xmlns:xlink="http://www.w3.org/1999/xlink" width="14px" height="14px" viewBox="0 0 14 14" version="1.1">
<defs>
<filter id="alpha" filterUnits="objectBoundingBox" x="0%" y="0%" width="100%" height="100%">
  <feColorMatrix type="matrix" in="SourceGraphic" values="0 0 0 0 1 0 0 0 0 1 0 0 0 0 1 0 0 0 1 0"/>
</filter>
<mask id="mask0">
  <g filter="url(#alpha)">
<rect x="0" y="0" width="14" height="14" style="fill:rgb(0%,0%,0%);fill-opacity:0.5;stroke:none;"/>
  </g>
</mask>
<clipPath id="clip1">
  <rect x="0" y="0" width="14" height="14"/>
</clipPath>
<g id="surface5" clip-path="url(#clip1)">
<path style=" stroke:none;fill-rule:nonzero;fill:rgb(0%,0%,0%);fill-opacity:1;" d="M 1.15625 6.949219 L 7.121094 12.910156 L 7.121094 8.25 C 7.121094 7.707031 6.359375 6.949219 5.820312 6.949219 Z M 0.621094 14.75 L 0.375 14.902344 C 0.375 14.902344 0.078125 14.75 0.621094 14.75 L 5.28125 14.75 Z M 0.621094 14.75 "/>
</g>
<mask id="mask1">
  <g filter="url(#alpha)">
<rect x="0" y="0" width="14" height="14" style="fill:rgb(0%,0%,0%);fill-opacity:0.5;stroke:none;"/>
  </g>
</mask>
<clipPath id="clip2">
  <rect x="0" y="0" width="14" height="14"/>
</clipPath>
<g id="surface8" clip-path="url(#clip2)">
<path style=" stroke:none;fill-rule:nonzero;fill:rgb(0%,0%,0%);fill-opacity:1;" d="M 12.957031 7.027344 L 7.097656 0.960938 L 7.015625 5.625 C 7.007812 6.164062 7.753906 6.9375 8.292969 6.945312 Z M 13.628906 -0.761719 L 13.875 -0.910156 C 13.875 -0.910156 14.171875 -0.75 13.628906 -0.761719 L 8.96875 -0.84375 Z M 13.628906 -0.761719 "/>
</g>
</defs>
<g id="surface1">
<path style=" stroke:none;fill-rule:evenodd;fill:#27aa33;fill-opacity:1;" d="M 7 14 C 10.867188 14 14 10.867188 14 7 C 14 3.132812 10.867188 0 7 0 C 3.132812 0 0 3.132812 0 7 C 0 10.867188 3.132812 14 7 14 "/>
<path style=" stroke:none;fill-rule:evenodd;fill:#34c848;fill-opacity:1;" d="M 7 13.5 C 10.589844 13.5 13.5 10.589844 13.5 7 C 13.5 3.410156 10.589844 0.5 7 0.5 C 3.410156 0.5 0.5 3.410156 0.5 7 C 0.5 10.589844 3.410156 13.5 7 13.5 "/>
<use xlink:href="#surface5" mask="url(#mask0)"/>
<use xlink:href="#surface8" mask="url(#mask1)"/>
</g>
</svg>
