<?xml version="1.0" encoding="UTF-8"?>
<svg xmlns="http://www.w3.org/2000/svg" xmlns:xlink="http://www.w3.org/1999/xlink" width="14px" height="14px" viewBox="0 0 14 14" version="1.1">
<defs>
<filter id="alpha" filterUnits="objectBoundingBox" x="0%" y="0%" width="100%" height="100%">
  <feColorMatrix type="matrix" in="SourceGraphic" values="0 0 0 0 1 0 0 0 0 1 0 0 0 0 1 0 0 0 1 0"/>
</filter>
<mask id="mask0">
  <g filter="url(#alpha)">
<rect x="0" y="0" width="14" height="14" style="fill:rgb(0%,0%,0%);fill-opacity:0.5;stroke:none;"/>
  </g>
</mask>
<clipPath id="clip1">
  <rect x="0" y="0" width="14" height="14"/>
</clipPath>
<g id="surface5" clip-path="url(#clip1)">
<path style=" stroke:none;fill-rule:nonzero;fill:rgb(0%,0%,0%);fill-opacity:1;" d="M 5.414062 4 L 10 8.585938 L 10 5 C 10 4.585938 9.414062 4 9 4 Z M 4 5.414062 L 4 9 C 4 9.414062 4.585938 10 5 10 L 8.585938 10 Z M 4 5.414062 "/>
</g>
</defs>
<g id="surface1">
<path style=" stroke:none;fill-rule:evenodd;fill:#27aa33;fill-opacity:1;" d="M 7 14 C 10.867188 14 14 10.867188 14 7 C 14 3.132812 10.867188 0 7 0 C 3.132812 0 0 3.132812 0 7 C 0 10.867188 3.132812 14 7 14 "/>
<path style=" stroke:none;fill-rule:evenodd;fill:#34c848;fill-opacity:1;" d="M 7 13.5 C 10.589844 13.5 13.5 10.589844 13.5 7 C 13.5 3.410156 10.589844 0.5 7 0.5 C 3.410156 0.5 0.5 3.410156 0.5 7 C 0.5 10.589844 3.410156 13.5 7 13.5 "/>
<use xlink:href="#surface5" mask="url(#mask0)"/>
</g>
</svg>
